<svg fill="none" height="534" width="522" xmlns="http://www.w3.org/2000/svg"><clipPath id="a"><path d="M0 0h522v534H0z"/></clipPath><g clip-path="url(#a)"><path clip-rule="evenodd" d="M131.384 351.583c7.164 1.465 13.106 5.044 17.827 10.737 4.722 5.694 7.082 12.282 7.082 19.766 0 5.693-1.383 10.94-4.151 15.739s-6.553 8.581-11.356 11.347c-4.803 2.765-10.053 4.148-15.751 4.148H35.166c-6.35 0-12.21-1.586-17.583-4.758-5.373-3.173-9.646-7.443-12.82-12.811C1.586 390.382 0 384.526 0 378.181c0-7.645 2.198-14.478 6.594-20.497 4.395-6.019 10.012-10.249 16.85-12.689v-1.952c0-6.995 1.75-13.502 5.25-19.522 3.5-6.019 8.263-10.777 14.287-14.275C49.004 305.749 55.557 304 62.639 304c7.082 0 13.635 1.789 19.66 5.368 6.023 3.579 10.744 8.297 14.163 14.153 3.908-2.602 8.222-3.904 12.943-3.904 6.513 0 12.048 2.278 16.607 6.833 4.558 4.555 6.837 10.086 6.837 16.593 0 2.928-.488 5.775-1.465 8.54z" fill="#fff" fill-rule="evenodd"/><path d="M519.75 203.938c-4.641-1.688-8.016.562-10.547 2.39-2.39 1.547-3.375 1.969-4.5 1.547s-1.547-1.266-2.25-4.078c-.422-1.969-.984-4.219-2.531-6.047.422-.422.703-.844.984-1.266 1.407 1.407 3.235 2.391 5.907 2.391 4.64 0 7.031-3.516 8.718-5.906 1.407-2.25 2.11-3.094 3.094-3.094 1.828 0 3.375-1.406 3.375-3.375 0-1.828-1.547-3.375-3.375-3.375-4.781 0-7.172 3.656-8.859 6.047-1.407 2.25-2.11 2.953-2.953 2.953-2.532 0-5.344-8.578-13.782-14.203l2.391-4.922c4.781-.281 8.578-4.219 8.578-9 0-4.922-4.078-9-9-9-5.062 0-9 4.078-9 9 0 1.969.422 3.656 1.406 5.062l-2.531 5.063A28.033 28.033 0 0 0 477 173c-2.953 0-5.625.422-8.016 1.125l-2.531-5.063c.985-1.406 1.547-3.093 1.547-5.062 0-4.922-4.078-9-9-9-5.062 0-9 4.078-9 9 0 4.781 3.656 8.719 8.438 9l2.39 4.922c-8.437 5.625-11.25 14.203-13.64 14.203-.985 0-1.688-.703-3.094-2.953-1.688-2.391-4.078-6.047-8.719-6.047-1.969 0-3.375 1.547-3.375 3.375 0 1.969 1.406 3.375 3.375 3.375.844 0 1.547.844 2.953 3.094 1.688 2.39 4.078 5.906 8.86 5.906 2.531 0 4.359-.984 5.765-2.391.281.422.563.844.985 1.266-1.547 1.828-2.11 4.078-2.532 6.047-.703 2.812-1.125 3.656-2.25 4.078s-2.109 0-4.5-1.547c-2.531-1.828-5.906-4.078-10.547-2.39-1.687.703-2.671 2.671-1.968 4.359.703 1.828 2.672 2.672 4.359 1.969 1.125-.422 1.969 0 4.359 1.546 1.969 1.407 4.36 2.954 7.454 2.954.984 0 2.109-.141 3.234-.563 4.641-1.828 5.625-5.765 6.328-8.859.281-1.125.563-1.969.844-2.532 2.39 1.829 5.203 3.516 8.719 4.782-1.407 5.203-4.5 12.656-8.438 12.656-1.969 0-3.375 1.547-3.375 3.375 0 1.969 1.406 3.375 3.375 3.375 9.281 0 13.641-12.375 15.047-18.141.984.141 1.828.141 2.953.141.984 0 1.828 0 2.813-.141C481.219 214.625 485.578 227 495 227c1.828 0 3.375-1.406 3.375-3.375 0-1.828-1.547-3.375-3.375-3.375-3.937 0-7.172-7.453-8.578-12.656 3.516-1.266 6.328-2.953 8.719-4.782.281.563.562 1.407.843 2.532.704 3.094 1.829 7.031 6.329 8.859a9.226 9.226 0 0 0 3.234.563c3.094 0 5.484-1.547 7.453-2.954 2.391-1.546 3.234-1.968 4.359-1.546 1.688.703 3.657-.141 4.36-1.969.703-1.688-.281-3.656-1.969-4.359zM495 161.75c1.125 0 2.25 1.125 2.25 2.25 0 1.266-1.125 2.25-2.25 2.25a2.22 2.22 0 0 1-2.25-2.25c0-1.125.984-2.25 2.25-2.25zm-36 0c1.125 0 2.25 1.125 2.25 2.25 0 1.266-1.125 2.25-2.25 2.25a2.22 2.22 0 0 1-2.25-2.25c0-1.125.984-2.25 2.25-2.25z" fill="#c2c7d1"/><path clip-rule="evenodd" d="M497.384 229.583c7.164 1.465 13.106 5.044 17.827 10.737 4.722 5.694 7.082 12.282 7.082 19.766 0 5.693-1.383 10.94-4.151 15.739s-6.553 8.581-11.356 11.347c-4.803 2.765-10.053 4.148-15.751 4.148h-89.869c-6.349 0-12.21-1.586-17.583-4.758-5.373-3.173-9.646-7.443-12.821-12.811-3.175-5.369-4.762-11.225-4.762-17.57 0-7.645 2.198-14.478 6.594-20.497 4.395-6.019 10.012-10.249 16.85-12.689v-1.952c0-6.995 1.75-13.502 5.25-19.522 3.501-6.019 8.263-10.777 14.287-14.275 6.023-3.497 12.576-5.246 19.658-5.246 7.083 0 13.635 1.789 19.659 5.368s10.745 8.297 14.164 14.153c3.908-2.602 8.222-3.904 12.943-3.904 6.513 0 12.048 2.278 16.607 6.833 4.558 4.555 6.837 10.086 6.837 16.593 0 2.928-.488 5.775-1.465 8.54z" fill="#fff" fill-rule="evenodd"/><path d="M234.9 424.403l5.764 1.949c1.075.392 2.239-.697 1.948-1.783l-1.674-6.249c-.291-1.086-1.844-1.447-2.579-.57l-3.504 3.947-1.553-5.795c-1.165-4.347-5.758-6.999-10.104-5.834l-1.449.388c-.815.219-1.255 1.113-1.061 1.837l.388 1.449a1.482 1.482 0 0 0 1.838 1.061l1.448-.388a3.76 3.76 0 0 1 4.593 2.651l1.553 5.796-5.099-1.643c-1.075-.391-2.149.673-1.858 1.76l1.675 6.248c.291 1.087 1.753 1.472 2.488.595l4.017-4.57c.289-.369.965-.744 1.509-.89.452-.121 1.225-.134 1.66.041zm37.84-40.615c-.205-.042-.501-.06-.682-.012l-23.816 6.382c-.181.048-.429.212-.586.351l15.936 9.124zm-17.71 36.774a.736.736 0 0 1-.996.267l-1.378-.796a.735.735 0 0 1-.267-.996l9.678-16.763-15.984-9.305c-.066.114-.042.205-.042.205l1.145 32.887c.024.09.072.271.03.477l-5.833 10.104c-.663 1.148-2.282.903-2.622-.365l-2.183-8.15-2.562-.867-1.785 2.031 2.062 7.698c.389 1.449 1.254 2.867 2.475 3.801 3.197 2.152 6.928.862 8.519-1.894l5.833-10.104c.157-.139.338-.188.429-.212l29.053-15.452s.09-.025.157-.139l-16.051-9.191zm20.351-35.25l-9.148 15.845 15.869 9.239c.042-.205.06-.501.012-.682l-6.382-23.816c-.049-.181-.212-.429-.351-.586z" fill="#c2c7d1"/><path clip-rule="evenodd" d="M373.692 460.792c3.582.732 6.553 2.521 8.914 5.368 2.36 2.847 3.541 6.141 3.541 9.883 0 2.847-.692 5.47-2.076 7.869-1.384 2.4-3.277 4.291-5.678 5.674s-5.027 2.074-7.876 2.074h-44.934c-3.175 0-6.105-.793-8.791-2.379a17.9 17.9 0 0 1-6.411-6.406c-1.587-2.684-2.381-5.612-2.381-8.784 0-3.823 1.099-7.239 3.297-10.249s5.006-5.124 8.425-6.344v-.977c0-3.497.875-6.751 2.625-9.76 1.75-3.01 4.131-5.389 7.143-7.138s6.289-2.623 9.83-2.623 6.817.895 9.829 2.684c3.012 1.79 5.373 4.149 7.082 7.077 1.954-1.302 4.111-1.952 6.472-1.952 3.256 0 6.024 1.138 8.303 3.416 2.279 2.277 3.419 5.043 3.419 8.296 0 1.465-.244 2.888-.733 4.271z" fill="#fff" fill-rule="evenodd"/><g fill="#c2c7d1"><path d="M129.729 45.31l15.223 8.788-.435 11.44-1.827-1.054c-.731-.422-1.813-.235-2.305.618l-2.813 4.871c-.421.73-.113 1.883.618 2.305l6.089 3.516-.302 9.243c.032.506.308 1.153.796 1.434l7.063 4.078c.974.563 2.268.01 2.516-.983l8.938-25.042a108.517 108.517 0 0 0 11.523 5.353l.16 10.972c.033.506.309 1.153.796 1.434l5.237 3.024c.852.492 2.075.061 2.516-.983l3.766-11.304c2.075.062 3.298-.369 3.86-1.343.633-1.096.395-2.37-.696-4.137l7.906-8.913c.684-.904.375-2.056-.477-2.549l-5.237-3.023c-.487-.281-1.115-.32-1.569-.094l-9.583 5.347a108.424 108.424 0 0 0-10.398-7.303l17.149-20.14c.806-.833.567-2.107-.407-2.67l-7.063-4.078c-.488-.281-1.115-.319-1.57-.094l-7.924 5.006-6.089-3.516c-.731-.422-1.813-.235-2.305.618l-2.813 4.871c-.421.73-.113 1.883.618 2.305l1.827 1.055-9.69 6.097-15.223-8.79c-6.942-4.007-14.424-4.267-16.604-.492-2.109 3.653 1.787 10.125 8.729 14.132zM205.125 141.478c-2.634-6.573-10.266-10.061-18.141-10.474 4.297 2.634 8.131 7.527 9.951 14.318l2.536-.679-7.441 14.611c-.205-.042-.501-.06-.682-.011l-4.347 1.165-3.106-11.592 10.142-2.717c-2.79-10.414-10.907-15.713-16.249-14.281-5.434 1.456-9.723 10.079-6.933 20.493l10.142-2.718 3.106 11.591-4.346 1.165c-.272.073-.429.212-.676.375l-13.75-8.933 2.626-.704c-1.819-6.792-.945-12.946 1.369-17.352-6.614 4.296-11.479 11.132-10.474 18.142.152.93.955 1.394 1.861 1.151l.724-.194 16.095 10.44c-.018.296-.036.592.013.773l3.105 11.591c.437 1.63 2.135 2.534 3.675 2.122l11.591-3.106c1.63-.437 2.558-2.044 2.121-3.674l-3.106-11.592c-.048-.181-.121-.452-.284-.7l8.718-17.088.724-.194c.906-.243 1.46-1.071 1.036-1.928z"/></g></g></svg>