<?xml version="1.0" encoding="utf-8"?>
<!-- Generator: Adobe Illustrator 17.0.0, SVG Export Plug-In . SVG Version: 6.00 Build 0)  -->
<!DOCTYPE svg PUBLIC "-//W3C//DTD SVG 1.1//EN" "http://www.w3.org/Graphics/SVG/1.1/DTD/svg11.dtd">
<svg version="1.1" id="gs3_logo" xmlns="http://www.w3.org/2000/svg" xmlns:xlink="http://www.w3.org/1999/xlink" x="0px" y="0px"
	 width="100px" height="100px" viewBox="0 0 100 100" style="enable-background:new 0 0 100 100;" xml:space="preserve">
<style type="text/css">
	.st0{fill:url(#SVGID_1_);}
	.st1{fill:#FFFFFF;}
	.st2{fill:#04378B;}
</style>
<g>
	
		<radialGradient id="SVGID_1_" cx="-128686.4844" cy="-55457.0156" r="886.8837" gradientTransform="matrix(8.948462e-02 0 0 8.921863e-02 11526.124 4973.4619)" gradientUnits="userSpaceOnUse">
		<stop  offset="0.2769" style="stop-color:#69B9DC"/>
		<stop  offset="0.3853" style="stop-color:#61ABD5"/>
		<stop  offset="0.5892" style="stop-color:#4D87C1"/>
		<stop  offset="0.8645" style="stop-color:#2C4DA2"/>
		<stop  offset="1" style="stop-color:#1A2E91"/>
	</radialGradient>
	<ellipse class="st0" cx="49.9" cy="50" rx="49.9" ry="50"/>
	<path class="st1" d="M26.6,78.6c0.4,0.7,1.1,1.1,1.8,1.1c0.3,0,0.6-0.1,0.9-0.2c1-0.5,1.4-1.7,0.8-2.7C25,67,22.3,55.7,22.3,44
		c0-15.9,5.1-31,14-42.1c-2.3,0.7-4.5,1.5-6.7,2.4C22.3,15.5,18.2,29.4,18.2,44C18.2,56.3,21.1,68.3,26.6,78.6z"/>
	<path class="st1" d="M79.4,46c1.1,0,2-0.9,2-2c0-14.9-4.1-28.7-11.3-39.7c-2.2-1-4.5-1.8-6.9-2.5C72,12.8,77.3,27.9,77.3,44
		C77.3,45.1,78.2,46,79.4,46z"/>
	<g>
		<path class="st1" d="M95.5,47c2.5-1.1,3.5-3.7,3.5-6.1c-0.1-3.5-2.9-6.3-6.4-6.3c-0.2,0-0.3,0-0.5,0c-3.1,0.2-5.5,2.1-5.7,4.7
			c-0.1,0.8,0.1,1.5,0.6,2c0.4,0.5,1,0.7,1.6,0.8c1.3,0.1,2.3-0.8,2.4-2.1c0.1-0.8-0.2-1.4-0.9-2c-0.1,0-0.1-0.1-0.2-0.2
			c1-1.1,2.5-1.2,3.5-0.2c0.7,0.7,1.1,1.9,1.1,3.1l0,1.4c-0.1,2.2-1.4,3.9-3,3.9l-0.2,0c-0.4,0-1.5,0-2.3-0.2c-0.1,0-0.3,0-0.4,0.1
			c-0.1,0.1-0.2,0.2-0.2,0.4v1.4c0,0.1,0.1,0.3,0.2,0.4c0.1,0.1,0.2,0.1,0.4,0.1c1.4-0.2,2.5-0.1,2.6-0.1c2.3,0.1,4,1.9,4,4.5v2.2
			c0,2.4-1.7,4.3-4,4.3h0c-0.9,0-1.8-0.4-2.5-1c0.1-0.1,0.1-0.2,0.2-0.3c0.7-0.7,1.1-1.1,1.3-1.7c0.2-0.7,0.1-1.3-0.4-1.9
			c-0.5-0.6-1.4-1.5-2.4-1.5c-0.7,0-1.3,0.4-1.8,1.2l-0.8,1.3c-2.1-1.9-4.3-2.7-7.2-2.7l-0.2,0c-1.2,0-2.3,0.2-3.4,0.5
			c1-0.6,1.7-1.8,1.8-3.2c0-1.4-0.6-2.7-1.7-3.3c-0.9-0.5-1.9-0.5-1.9-0.5l-0.3,0c-0.9,0-1.7,0.2-2.5,0.5c-0.5,0.2-0.9,0.4-1.3,0.7
			l-0.1,0.1c-1,0.6-1.9,1.4-2.6,2.2c-2-1.8-4.7-2.8-7.4-2.8h-4.2c-6.2,0-11.2,5.1-11.2,11.3c0,3.4,1.5,6.6,4.1,8.8
			c-3.8,1-6.4,4.3-6.4,8.2c0,3.3,2,6.2,5,7.6c-3.1,1.5-4.8,4.2-4.8,7.8c0,5.7,5,8.8,14.2,8.8c0.3,0,0.6,0,0.9,0
			c4.2-0.1,7.7-0.8,10.5-2c2.2-1,4-2.4,5.3-4.1c1.5-2.1,2.3-4.5,2.3-7.8c0-0.4,0-0.9,0-1.3c1.6,0.9,3.4,1.5,5.3,1.7
			c3.6,0.4,6.7-0.7,8.9-3c1.7-1.8,2.6-4.3,2.8-7.1c0.2-3.3-1-6.5-3-8.3c-1.6-1.5-3-2.1-7.1-3l-4.1-1c-2.1-0.5-2.5-0.6-3.1-0.9
			c-1.1-0.5-1.7-1.6-1.7-2.9c0.1-2.6,3.2-3.8,5.9-4c2.2-0.2,4,0.5,5.7,2.2c0.4,0.4,0.7,0.8,0.9,1.1c0.7,1,1.1,2.6,1.3,3.8
			c0,0.2,0.3,0.4,0.5,0.4h1.7c0,0,0,0,0,0c0.3,0,0.5-0.2,0.5-0.5c0-0.1,0-0.2-0.1-0.2c-0.1-0.4-0.1-1.1-0.1-2.1
			c1.2,0.8,2.6,1.2,4,1.2h0.3c4.1,0,7.4-3.4,7.4-7.5C100,50.8,98.2,48.2,95.5,47z M47.5,86.7c0.4-1.2,1.3-2.3,2.7-3.4l15.9,0
			c1.4,0,2.4,0.7,3,1.2c0.8,0.7,1.2,1.8,1.2,3.1c0,2.3-1.1,4.2-3.5,5.6c-1.8,1.1-4.2,1.8-7.2,2.3c-3.8,0.6-7,0.3-9.2-0.9
			c-1.3-0.7-2.2-1.8-2.8-3.1C47,89.7,46.9,88.1,47.5,86.7z M67.3,72.6v2.8c-1.7-0.4-3.8-0.5-7-0.4H47.8c-1.7,0-3.1-1.3-3.1-2.9
			c0-1.6,1.4-2.9,3.1-2.9l11,0c3.5,0,6.7-1.8,8.7-4.8c0.2,1.9,1,3.5,2.1,4.6c1.6,1.5,3.2,2.1,7.2,3l3.5,0.7c5.5,1.2,6.6,2.6,6.6,4.7
			c0,3-2.6,5.3-6.2,5.4c-5.4,0.3-9.5-3.6-10.8-10.4c0-0.2-0.3-0.4-0.5-0.4h-1.6C67.5,72.1,67.3,72.3,67.3,72.6z M61.4,61.2
			c0,2.8-2.2,5-5,5h-0.3c-2.8,0-5-2.2-5-5V54c0-2.8,2.2-5,5-5h0.3c2.8,0,5,2.2,5,5V61.2z M69.4,56.6c-0.2-1.7-0.8-3.4-1.7-4.8
			c0.2-0.4,0.6-0.7,1.1-0.9c0.1,0,0.2-0.1,0.3-0.1c0.1,0,0.2,0,0.3,0.2l0.1,0.2c0.5,1.4,1.6,2.3,3.2,2.3c0.2,0,0.4,0,0.5,0
			C71.7,54.2,70.4,55.3,69.4,56.6z"/>
	</g>
	<path class="st1" d="M49.9,44.8c1.1,0,2-0.9,2-2V0.1c-0.7,0-1.3-0.1-2-0.1c-0.7,0-1.3,0-2,0.1v42.8C47.9,43.9,48.8,44.8,49.9,44.8z
		"/>
	<path class="st1" d="M66.4,30.9c0-1.1-0.9-2-2-2H4.6c-0.6,1.3-1.2,2.6-1.7,4h61.4C65.5,32.9,66.4,32,66.4,30.9z"/>
	<path class="st1" d="M39.6,66.4c0-1.1-0.9-2-2-2H2.1c0.4,1.4,0.9,2.7,1.4,4h34.1C38.7,68.4,39.6,67.5,39.6,66.4z"/>
	<path class="st2" d="M22.5,65.1c-1.8-6.6-2.8-13.5-2.8-20.4c0-3.7,0.3-7.4,0.8-11l0-0.1h-1.7l0,0.1c-0.5,3.5-0.7,6.9-0.7,10.3
		c0,6.9,0.9,13.7,2.8,20.4H2.1c0.1,0.3,0.2,0.6,0.3,0.8L22.5,65.1L22.5,65.1z"/>
	<path class="st2" d="M37.6,64.4H26.4c0.1,0.2,0.1,0.5,0.2,0.7h12.4c0,0,0.1,0,0.1,0C38.8,64.7,38.2,64.4,37.6,64.4z"/>
	<path class="st2" d="M25.3,29.6h24V0c-0.5,0-1,0-1.4,0v28.9H25.4C25.4,29.2,25.3,29.4,25.3,29.6z"/>
	<path class="st2" d="M31,5c0.6-0.8,1.1-1.4,1.6-1.9c-1,0.4-2,0.8-3,1.2c-4.7,7.2-8.1,15.6-9.9,24.6H4.6c-0.1,0.2-0.2,0.5-0.3,0.7
		h16.8C23,20.7,26.3,12.3,31,5z"/>
	<path class="st2" d="M64.4,28.9h-11v0.7h12.5c0,0,0.1,0,0.1,0C65.5,29.2,65,28.9,64.4,28.9z"/>
	<path class="st2" d="M78.7,44.7c0-16.1-5.4-31.2-14.2-42.2c-0.1-0.1-0.3-0.3-0.5-0.4c-0.4-0.1-0.7-0.2-1-0.3
		c8.8,11,14.2,26.1,14.2,42.2c0,1.1,0.9,2,1.9,2C78.9,45.6,78.7,45.2,78.7,44.7z"/>
	<path class="st2" d="M49.3,43.5v-9.9h-1.4v9.2c0,1.1,0.9,2,1.9,2C49.5,44.5,49.3,44,49.3,43.5z"/>
	<path class="st2" d="M28.3,79.6c-0.1-0.1-0.2-0.2-0.2-0.3c-1.6-3.1-3.1-6.5-4.3-10.1l0,0h-1.3l0,0.1c1.2,3.4,2.6,6.6,4.1,9.4
		C26.9,79.2,27.5,79.7,28.3,79.6l0.1,0.1L28.3,79.6z"/>
</g>
</svg>
